<?xml version="1.0" standalone="no"?>
<!DOCTYPE svg PUBLIC "-//W3C//DTD SVG 20010904//EN"
 "http://www.w3.org/TR/2001/REC-SVG-20010904/DTD/svg10.dtd">
<svg version="1.0" xmlns="http://www.w3.org/2000/svg"
 width="700.000000pt" height="700.000000pt" viewBox="0 0 700.000000 700.000000"
 preserveAspectRatio="xMidYMid meet">
<metadata>
Created by potrace 1.14, written by Peter Selinger 2001-2017
</metadata>
<g transform="translate(0.000000,700.000000) scale(0.100000,-0.100000)"
fill="#000000" stroke="none">
<path d="M3427 6654 c-1 -1 -51 -4 -112 -8 -134 -8 -176 -13 -285 -33 -47 -8
-96 -17 -110 -19 -53 -10 -218 -54 -291 -78 -348 -114 -695 -309 -965 -541
-110 -94 -283 -273 -354 -365 -19 -25 -38 -47 -41 -50 -14 -11 -123 -169 -176
-254 -149 -241 -304 -619 -347 -846 -4 -23 -17 -87 -30 -149 -3 -13 -8 -49
-12 -80 -3 -31 -8 -58 -9 -61 -7 -11 -18 -221 -19 -338 l-1 -123 -40 -10
c-383 -95 -642 -429 -630 -813 4 -126 8 -156 37 -241 97 -282 322 -482 619
-549 19 -4 27 -12 27 -28 0 -83 45 -297 93 -441 213 -644 753 -1039 1634
-1196 113 -20 133 -23 270 -40 128 -16 193 -21 425 -37 101 -6 689 -7 775 0
33 2 105 7 160 11 55 3 116 8 135 10 19 2 58 7 85 10 118 13 145 16 235 31 52
8 104 17 115 19 41 6 221 46 250 55 17 5 77 23 135 41 530 157 922 461 1129
875 64 129 121 292 145 414 2 14 10 50 16 80 6 30 13 82 16 115 6 66 16 82 54
88 83 16 199 65 277 118 178 121 315 330 350 534 10 55 10 229 0 290 -33 202
-168 411 -346 533 -50 34 -214 112 -237 112 -5 0 -25 5 -44 10 l-35 10 -1 122
c-1 154 -10 276 -30 413 -123 819 -597 1538 -1309 1986 -247 155 -644 318
-865 354 -19 3 -43 8 -52 11 -41 12 -236 40 -348 49 -75 6 -288 13 -293 9z"/>
</g>
</svg>
